<?xml version="1.0" standalone="no"?>
<!DOCTYPE svg PUBLIC "-//W3C//DTD SVG 20010904//EN"
 "http://www.w3.org/TR/2001/REC-SVG-20010904/DTD/svg10.dtd">
<svg version="1.0" xmlns="http://www.w3.org/2000/svg"
 width="1896.000000pt" height="2000.000000pt" viewBox="0 0 1896.000000 2000.000000"
 preserveAspectRatio="xMidYMid meet">
<metadata>
Created by potrace 1.16, written by Peter Selinger 2001-2019
</metadata>
<g transform="translate(0.000000,2000.000000) scale(0.100000,-0.100000)"
fill="#000000" stroke="none">
<path d="M10120 15165 l0 -1045 99 0 c69 0 102 4 108 13 4 6 10 221 13 477 4
364 8 471 19 495 52 113 69 140 120 188 102 94 195 127 359 127 125 0 197 -18
267 -67 94 -66 138 -143 160 -278 12 -69 15 -191 15 -522 l0 -433 100 0 c88 0
100 2 110 19 14 27 14 821 -1 926 -28 212 -98 344 -231 438 -75 53 -152 83
-262 102 -101 18 -141 18 -242 0 -154 -27 -257 -77 -352 -172 -35 -35 -65 -63
-65 -63 -1 0 -1 180 1 400 2 274 0 406 -8 420 -10 18 -20 20 -110 20 l-100 0
0 -1045z"/>
<path d="M6238 16099 c-10 -5 -18 -14 -18 -20 0 -5 -20 -53 -45 -106 -25 -52
-45 -97 -45 -98 0 -2 -16 -39 -36 -82 -20 -43 -44 -96 -54 -118 -17 -40 -160
-352 -226 -493 -19 -41 -34 -75 -34 -77 0 -2 -18 -43 -41 -92 -22 -48 -81
-178 -131 -288 -50 -110 -107 -236 -128 -280 -20 -44 -48 -105 -61 -135 -13
-30 -38 -83 -55 -117 -30 -62 -31 -63 -10 -69 12 -3 63 -4 115 -2 71 2 96 7
103 18 4 8 28 58 51 110 24 52 54 118 67 145 13 28 34 75 47 105 14 30 34 74
44 98 l19 42 543 0 542 0 23 -48 c12 -26 22 -50 22 -54 0 -3 20 -48 44 -99 50
-109 89 -192 122 -266 l24 -53 109 0 c61 0 112 4 116 9 3 6 -3 25 -13 43 -10
18 -28 56 -39 83 -21 48 -47 106 -139 304 -24 51 -44 95 -44 97 0 2 -14 34
-31 71 -17 38 -44 95 -59 128 -15 33 -41 89 -57 125 -60 126 -133 289 -133
293 0 3 -24 56 -54 118 -29 63 -68 148 -86 189 -18 41 -52 117 -76 168 -24 51
-44 94 -44 96 0 2 -22 52 -50 110 -27 58 -50 110 -50 115 0 5 -7 17 -16 25
-12 12 -37 16 -107 16 -51 0 -100 -5 -109 -11z m131 -301 c10 -24 32 -72 48
-108 17 -36 46 -101 65 -145 20 -44 75 -168 123 -275 48 -107 95 -213 105
-235 9 -22 34 -77 54 -121 20 -45 36 -84 36 -88 0 -3 -205 -6 -455 -6 -377 0
-455 2 -455 14 0 13 26 73 96 224 19 41 34 76 34 79 0 3 15 37 34 76 18 40 48
106 66 147 18 41 50 113 71 158 22 46 39 86 39 89 0 3 16 40 36 82 20 42 43
93 51 114 8 20 19 37 24 37 6 0 18 -19 28 -42z"/>
<path d="M7640 15765 l0 -165 -130 0 -130 0 0 -90 0 -90 130 0 130 0 0 -488
c0 -470 1 -491 21 -553 29 -89 42 -111 94 -162 133 -129 370 -155 561 -62 28
14 58 33 68 44 16 17 15 21 -14 77 -47 88 -43 86 -113 51 -56 -28 -71 -32
-152 -32 -97 0 -146 17 -192 67 -52 57 -53 63 -53 579 l0 479 223 2 222 3 0
85 0 85 -222 3 -223 2 -2 163 -3 162 -107 3 -108 3 0 -166z"/>
<path d="M9060 15608 c-160 -27 -256 -67 -337 -142 -116 -105 -156 -236 -118
-383 19 -73 55 -125 128 -184 79 -63 184 -96 497 -155 129 -24 185 -42 237
-77 64 -43 86 -86 80 -159 -8 -98 -64 -159 -177 -195 -76 -24 -340 -24 -420 0
-30 9 -71 21 -91 26 -48 15 -175 77 -184 90 -3 6 -16 11 -28 11 -17 0 -32 -18
-64 -72 -49 -85 -48 -87 52 -143 330 -184 848 -159 1034 51 66 76 86 127 89
239 3 90 1 107 -21 157 -61 136 -183 203 -472 257 -277 52 -371 86 -425 154
-22 27 -25 41 -25 107 0 68 3 81 28 113 62 81 165 117 339 117 158 0 259 -24
369 -88 31 -17 61 -32 68 -32 10 0 91 149 91 168 0 24 -185 98 -300 120 -178
35 -241 39 -350 20z"/>
<path d="M12415 15608 c-189 -29 -348 -91 -455 -178 l-25 -20 36 -67 c48 -89
58 -95 106 -57 106 84 269 134 441 134 203 0 306 -50 374 -183 26 -53 29 -69
31 -165 l2 -107 -325 -6 c-345 -6 -387 -11 -483 -59 -95 -48 -171 -132 -203
-225 -12 -35 -15 -75 -12 -154 3 -93 6 -113 32 -162 111 -219 424 -316 731
-226 75 22 150 65 212 121 l62 57 3 -93 3 -93 98 -3 97 -3 0 525 c0 434 -3
535 -15 583 -47 183 -169 306 -355 357 -130 35 -235 42 -355 24z m513 -932 c3
-143 -10 -179 -99 -268 -116 -117 -303 -164 -487 -122 -155 35 -237 123 -236
253 2 141 83 220 254 247 45 7 175 11 320 10 l245 -1 3 -119z"/>
<path d="M5615 12916 c-16 -8 -42 -26 -57 -42 -14 -16 -429 -688 -921 -1494
-492 -806 -916 -1500 -943 -1544 -42 -67 -48 -85 -48 -130 0 -36 6 -63 21 -85
11 -18 1309 -1365 2884 -2992 3116 -3220 2894 -2999 2996 -2984 38 5 56 15 88
48 22 23 1303 1362 2845 2975 1961 2051 2811 2946 2824 2975 15 34 17 50 9 87
-6 33 -266 466 -947 1580 -516 844 -950 1548 -964 1564 -15 16 -41 35 -59 42
-48 21 -7683 20 -7728 0z m3553 -348 c-8 -13 -364 -589 -792 -1280 l-779
-1258 -101 163 c-56 89 -416 662 -799 1273 -383 612 -697 1115 -697 1118 0 3
716 6 1591 6 l1591 0 -14 -22z m3729 -96 c-39 -65 -394 -640 -787 -1279 l-714
-1161 -17 26 c-16 26 -1509 2420 -1556 2495 l-23 37 1585 0 1585 0 -73 -118z
m-6408 -1320 c435 -694 791 -1265 791 -1267 0 -3 -709 -5 -1575 -5 -866 0
-1575 2 -1575 5 0 17 1554 2545 1560 2538 5 -4 364 -576 799 -1271z m3800 4
c435 -698 790 -1271 788 -1272 -2 -2 -715 -3 -1584 -2 l-1581 3 759 1225 c418
674 773 1247 790 1274 17 26 32 47 34 45 1 -2 359 -575 794 -1273z m3781 -20
l765 -1251 -777 -3 c-427 -1 -1130 -1 -1563 0 l-786 3 783 1272 c744 1209 784
1271 798 1251 8 -12 359 -584 780 -1272z m-5823 -3981 c425 -1309 795 -2449
822 -2534 l50 -154 -58 59 c-73 74 -4761 4925 -4810 4977 l-35 37 1629 -2
1628 -3 774 -2380z m2910 2366 c-35 -134 -1643 -5148 -1648 -5139 -5 10 -1493
4584 -1639 5041 l-38 117 1665 0 c1619 0 1665 -1 1660 -19z m1212 -2473
c-1310 -1371 -2399 -2511 -2420 -2533 l-39 -40 23 75 c13 41 376 1181 807
2533 l784 2457 1613 0 1613 0 -2381 -2492z"/>
</g>
</svg>
